<svg data-v-0dd9719b="" version="1.0" xmlns="http://www.w3.org/2000/svg" xmlns:xlink="http://www.w3.org/1999/xlink" width="100%" height="100%" viewBox="0 0 340.000000 250.000000" preserveAspectRatio="xMidYMid meet" color-interpolation-filters="sRGB" style="margin: auto;"> <rect data-v-0dd9719b="" x="0" y="0" width="100%" height="100%" fill="#ffffff" fill-opacity="1" class="background"></rect> <rect data-v-0dd9719b="" x="0" y="0" width="100%" height="100%" fill="url(#watermark)" fill-opacity="1" class="watermarklayer"></rect> <g data-v-0dd9719b="" fill="#000000" class="icon-text-wrapper icon-svg-group iconsvg" transform="translate(57.67500305175781,95)"><g class="iconsvg-imagesvg" transform="translate(0,0)"><g><rect fill="#000000" fill-opacity="0" stroke-width="2" x="0" y="0" width="60" height="60" class="image-rect"></rect> <svg filter="url(#colors8174064667)" x="0" y="0" width="60" height="60" filtersec="colorsf5405939615" class="image-svg-svg primary" style="overflow: visible;"><svg xmlns="http://www.w3.org/2000/svg" viewBox="-1 -1 54 54"><path d="M51 26c0 13.8-11.2 25-25 25S1 39.8 1 26 12.2 1 26 1s25 11.2 25 25zM26 44.6c10.3 0 18.6-8.3 18.6-18.6M26 38.2c6.7 0 12.1-5.4 12.1-12.1V4.2M44.5 26V9.2M7.4 26c0 10.3 8.3 18.6 18.6 18.6M13.8 4.1V26c0 6.7 5.4 12.1 12.1 12.1M7.4 26V9.2" fill="none" stroke="#282828" stroke-width="2" stroke-miterlimit="10"></path></svg></svg> <defs><filter id="colors8174064667"><feColorMatrix type="matrix" values="0 0 0 0 0.16015625  0 0 0 0 0  0 0 0 0 0.484375  0 0 0 1 0" class="icon-fecolormatrix"></feColorMatrix></filter> <filter id="colorsf5405939615"><feColorMatrix type="matrix" values="0 0 0 0 0.99609375  0 0 0 0 0.99609375  0 0 0 0 0.99609375  0 0 0 1 0" class="icon-fecolormatrix"></feColorMatrix></filter> <filter id="colorsb9334587229"><feColorMatrix type="matrix" values="0 0 0 0 0  0 0 0 0 0  0 0 0 0 0  0 0 0 1 0" class="icon-fecolormatrix"></feColorMatrix></filter></defs></g></g> <g transform="translate(67,6.039999008178711)"><g data-gra="path-name" fill-rule="" class="tp-name iconsvg-namesvg"><g transform="scale(1)"><g><path d="M39.55-27.8L39.93-6.47Q38.44-4.6 36.25-3.21 34.06-1.81 31.55-0.89 29.04 0.03 26.41 0.49 23.77 0.95 21.39 0.95L21.39 0.95Q16.79 0.95 12.92-0.7 9.05-2.35 6.24-5.25 3.43-8.16 1.84-12.09 0.25-16.03 0.25-20.57L0.25-20.57Q0.25-24.03 1.05-27.34 1.84-30.66 3.32-33.59 4.79-36.53 6.92-38.99 9.05-41.45 11.74-43.23 14.44-45 17.65-45.99 20.85-46.97 24.5-46.97L24.5-46.97Q25.87-46.97 27.42-46.86 28.98-46.75 30.52-46.48 32.06-46.21 33.52-45.73 34.98-45.26 36.18-44.56L36.18-44.56 35.29-32.44Q33.52-33.1 31.63-33.34 29.74-33.58 27.93-33.58L27.93-33.58Q25.39-33.58 23.18-32.8 20.98-32.02 19.34-30.56 17.71-29.1 16.76-27.01 15.81-24.91 15.81-22.28L15.81-22.28Q15.81-20.63 16.25-19.09 16.69-17.55 17.6-16.36 18.5-15.17 19.85-14.44 21.2-13.71 22.98-13.71L22.98-13.71Q24.18-13.71 25.47-14.03 26.76-14.35 27.68-15.11L27.68-15.11 27.8-17.58 20.19-17.71 20.57-27.23Q25.3-27.39 30.02-27.5 34.75-27.61 39.55-27.8L39.55-27.8ZM69.98-45.45L82.36-2.73 66.62-0.7 64.71-7.87 57.48-7.87 55.89-0.7 39.7-2.29 52.34-44.56 69.98-45.45ZM58.81-17.58L63.57-17.58 61.16-28.63 58.81-17.58ZM117.56-25.64L117.56-25.64Q117.56-22.88 117.18-20.12L117.18-20.12Q111.75-19.77 106.39-19 101.02-18.22 95.66-17.46L95.66-17.46Q96.48-15.17 98.25-13.81 100.01-12.44 102.45-12.44L102.45-12.44Q103.72-12.44 105.23-12.92 106.74-13.39 108.23-14.11 109.72-14.82 111.08-15.65 112.45-16.47 113.43-17.14L113.43-17.14 111.91-2.73Q110.67-1.78 109.23-1.11 107.78-0.44 106.23-0.03 104.67 0.38 103.09 0.57 101.5 0.76 99.98 0.76L99.98 0.76Q96.83 0.76 94.23-0.1 91.63-0.95 89.52-2.49 87.41-4.03 85.82-6.13 84.23-8.22 83.19-10.7 82.14-13.17 81.6-15.93 81.06-18.69 81.06-21.52L81.06-21.52Q81.06-24.47 81.6-27.42 82.14-30.37 83.23-33.1 84.33-35.83 85.99-38.17 87.66-40.5 89.88-42.24 92.1-43.99 94.91-44.97 97.72-45.96 101.12-45.96L101.12-45.96Q103.94-45.96 106.28-45.18 108.61-44.4 110.43-43.02 112.26-41.64 113.61-39.74 114.96-37.83 115.83-35.56 116.7-33.29 117.13-30.77 117.56-28.25 117.56-25.64ZM104.86-26.6L104.86-27.29Q104.86-28.18 104.67-29.12 104.48-30.06 104.05-30.82 103.63-31.58 102.93-32.07 102.23-32.56 101.18-32.56L101.18-32.56Q99.91-32.56 98.94-31.88 97.98-31.2 97.28-30.17 96.58-29.14 96.14-27.93 95.69-26.72 95.47-25.71L95.47-25.71 104.86-26.6ZM145.52-45.45L157.9-2.73 142.16-0.7 140.25-7.87 133.02-7.87 131.43-0.7 115.24-2.29 127.87-44.56 145.52-45.45ZM134.35-17.58L139.11-17.58 136.7-28.63 134.35-17.58Z" transform="translate(-0.25, 46.970001220703125)"></path></g> <!----> <!----> <!----> <!----> <!----> <!----> <!----></g></g> <!----></g></g><defs v-gra="od"></defs></svg>